<?xml version="1.0" encoding="UTF-8"?>
<svg xmlns="http://www.w3.org/2000/svg" width="2.9815046in" height="1.1111295in" version="1.1" viewBox="0 0 214.6683297 80.0013219">
  <defs>
    <style>
      .cls-1 {
        fill: #fff;
      }

      .cls-2 {
        fill: #2bb1bc;
      }
    </style>
  </defs>
  <!-- Generator: Adobe Illustrator 28.7.4, SVG Export Plug-In . SVG Version: 1.2.0 Build 166)  -->
  <g>
    <g id="Layer_1">
      <rect class="cls-2" x="21.0137441" y="14.8911498" width="49.9968" height="49.9968" rx="9.99936" ry="9.99936"/>
      <path class="cls-1" d="M47.0159804,24.4530378h5.8590248v19.68624c0,1.8097845-.403674,3.4112807-1.2109229,4.8043914-.7941482,1.3801111-1.9203769,2.447746-3.3786843,3.2028971-1.4582063.7551511-3.1052013,1.1327247-4.9410824,1.1327247-3.0076086,0-5.351159-.7616509-7.0307504-2.2849528-1.6795924-1.5364007-2.5194387-3.7042612-2.5194387-6.5034824h5.8981229c0,1.3931108.2929805,2.4216437.8788424,3.0857019.5858638.6640581,1.5103041.9960376,2.7732238.9960376,1.119727,0,2.0116701-.3840773,2.6756272-1.1523272.6640581-.7681508.9960376-1.8617812.9960376-3.2809904v-19.68624Z"/>
      <g>
        <path class="cls-2" d="M99.7176642,31.2620906v12.0846927c0,1.8707437-.5267924,3.3118415-1.5801088,4.3230253-1.0533164,1.0114521-2.4734822,1.517044-4.2599605,1.517044-1.8707437,0-3.3711493-.5310862-4.5001435-1.5927218-1.1292626-1.061904-1.6938938-2.5700921-1.6938938-4.5256378h4.2980678c0,.7420178.1516239,1.302087.45514,1.6812809.3032478.3791939.7412127.5689251,1.3144316.5689251.5222303,0,.9269185-.1682623,1.2135279-.5055919.2866094-.3370613.4299141-.8257464.4299141-1.4663238v-12.0846927h4.3230253Z"/>
        <path class="cls-2" d="M108.098306,48.3272928c-1.1040366-.5898572-1.9719157-1.4325103-2.6039056-2.5282278-.6322582-1.0954491-.948119-2.3766039-.948119-3.8429277,0-1.4494171.3198862-2.7260098.9607319-3.8300464.640309-1.1037683,1.5167757-1.9507152,2.6291315-2.5408408,1.1126242-.589723,2.3596972-.8847858,3.7417557-.8847858,1.3817901,0,2.6293998.2950628,3.7417557.8847858,1.1123558.5901256,1.9885541,1.4370725,2.6293998,2.5408408.640309,1.1040366.9604636,2.3806293.9604636,3.8300464,0,1.4496854-.3247167,2.7265465-.9733449,3.8303148-.6488966,1.1040366-1.5336824,1.9509836-2.6543574,2.5408408-1.1212117.5901256-2.3725785.8847858-3.7543686.8847858-1.3823269,0-2.6253744-.2946602-3.7291427-.8847858ZM113.9383753,44.5603112c.581538-.6067639.8721728-1.474643.8721728-2.6041739,0-1.1289942-.2823156-1.9971416-.8469469-2.6039056-.5648996-.6067639-1.2599543-.9101459-2.0857007-.9101459-.8429215,0-1.5422699.2994907-2.0983137.8975329-.5563121.5984447-.834334,1.4706176-.834334,2.6165185,0,1.1295309.2737281,1.99741.821721,2.6041739.5474562.6067639,1.23446.9100117,2.0604748.9100117.825478,0,1.5293886-.3032478,2.1109266-.9100117Z"/>
        <path class="cls-2" d="M129.7773025,35.3072283c.7583878-.404554,1.6262669-.6067639,2.6039056-.6067639,1.163076,0,2.2161241.2950628,3.1602177.8847858.9438252.5901256,1.6896001,1.4327787,2.237593,2.5282278.5474562,1.0957174.8214526,2.3680164.8214526,3.8174334,0,1.4496854-.2739965,2.7265465-.8214526,3.8303148-.5479929,1.1040366-1.2937678,1.9552773-2.237593,2.5534537-.9440936.5984447-1.9971416.8973988-3.1602177.8973988-.9945454,0-1.8624245-.1983187-2.6039056-.594151-.7420178-.3958323-1.3232875-.922893-1.744614-1.5801088v1.9719157h-4.3230253v-18.7083758h4.3230253v6.5985914c.4046882-.65735.9862262-1.188302,1.744614-1.5927218ZM133.3041011,39.3902048c-.5984447-.6150831-1.3359004-.9227589-2.2120987-.9227589-.8595599,0-1.5889647.3119695-2.1868728.9353718-.5984447.6236707-.8976671,1.4750455-.8976671,2.5533195,0,1.0788107.2992224,1.9300514.8976671,2.5534537.597908.623939,1.3273129.935506,2.1868728.935506s1.5927218-.3161291,2.1994857-.948119.9100117-1.487256.9100117-2.5660667c0-1.0785424-.2994907-1.9253551-.8973988-2.5407066Z"/>
        <path class="cls-2" d="M154.1989471,31.2620906v12.0846927c0,1.8707437-.5267924,3.3118415-1.5801088,4.3230253-1.0533164,1.0114521-2.4734822,1.517044-4.2599605,1.517044-1.8707437,0-3.3711493-.5310862-4.5001435-1.5927218-1.1292626-1.061904-1.6938938-2.5700921-1.6938938-4.5256378h4.2980678c0,.7420178.1516239,1.302087.45514,1.6812809.3032478.3791939.7412127.5689251,1.3144316.5689251.5222303,0,.9269185-.1682623,1.2135279-.5055919.2866094-.3370613.4299141-.8257464.4299141-1.4663238v-12.0846927h4.3230253Z"/>
        <path class="cls-2" d="M159.8492853,38.1134779c.5474562-1.0954491,1.2932311-1.9381022,2.2373246-2.5282278.9438252-.589723,1.9971416-.8847858,3.1602177-.8847858.994277,0,1.8664499.2022099,2.6167869.6067639.7495319.4044198,1.3270445.9353718,1.7317327,1.5927218v-1.9972758h4.3230253v14.1070603h-4.3230253v-1.9971416c-.4215949.6572158-1.0074267,1.188302-1.757227,1.5927218-.7500686.4044198-1.6222415.6067639-2.6165185.6067639-1.1464377,0-2.1911665-.298954-3.1349917-.8973988-.9440936-.5981764-1.6898684-1.4494171-2.2373246-2.5534537-.5479929-1.1037683-.821721-2.3806293-.821721-3.8303148,0-1.4494171.2737281-2.721716.821721-3.8174334ZM168.69768,39.4028177c-.5984447-.6234023-1.3273129-.9353718-2.1868728-.9353718s-1.5886964.3076757-2.1868728.9227589c-.5984447.6153515-.8973988,1.4621642-.8973988,2.5407066,0,1.0788107.298954,1.9340768.8973988,2.5660667.5981764.6319899,1.3273129.948119,2.1868728.948119s1.588428-.311567,2.1868728-.935506c.5981764-.6234023.8976671-1.474643.8976671-2.5534537,0-1.078274-.2994907-1.9296489-.8976671-2.5533195Z"/>
        <path class="cls-2" d="M201.43717,36.3437721c1.0366781,1.0617698,1.5548829,2.5368153,1.5548829,4.4240632v8.2418992h-4.2977994v-7.6603612c0-.9100117-.240183-1.6135198-.7205489-2.1109266-.480366-.4968702-1.1421439-.7457749-1.9845287-.7457749-.8431899,0-1.5044311.2489047-1.984797.7457749-.480366.4974069-.7205489,1.2009149-.7205489,2.1109266v7.6603612h-4.2977994v-7.6603612c0-.9100117-.240183-1.6135198-.7205489-2.1109266-.480366-.4968702-1.1421439-.7457749-1.9845287-.7457749-.8431899,0-1.5044311.2489047-1.984797.7457749-.480366.4974069-.7205489,1.2009149-.7205489,2.1109266v7.6603612h-4.3230253v-14.1070603h4.3230253v1.7697058c.4382333-.589723,1.0114521-1.057476,1.7193881-1.4031248.7076676-.3452463,1.5081881-.518339,2.4015615-.518339,1.061904,0,2.0100229.22757,2.8443569.6827101.834334.4550059,1.487256,1.1040366,1.9593027,1.9466898.4886852-.7750262,1.1542201-1.4071502,1.9971416-1.8962379.8426531-.488551,1.7609841-.7331619,2.7557978-.7331619,1.7526649,0,3.1476047.530952,4.1840144,1.592856Z"/>
      </g>
    </g>
  </g>
</svg>